<svg width="32" height="32" viewBox="0 0 32 32" fill="none" xmlns="http://www.w3.org/2000/svg">
<g clip-path="url(#clip0_38_73)">
<circle cx="16" cy="16" r="11" fill="white"/>
<path fill-rule="evenodd" clip-rule="evenodd" d="M29.3334 15.9998C29.3334 23.3632 23.3634 29.3332 16.0001 29.3332C8.63675 29.3332 2.66675 23.3632 2.66675 15.9998C2.66675 8.6365 8.63675 2.6665 16.0001 2.6665C23.3634 2.6665 29.3334 8.6365 29.3334 15.9998ZM16.4779 12.5098C15.1812 13.0487 12.589 14.1654 8.7023 15.8587C8.07119 16.1098 7.74008 16.3554 7.71008 16.5954C7.65897 17.0021 8.16786 17.1621 8.85897 17.3787C8.95341 17.4087 9.05119 17.4387 9.15119 17.4721C9.8323 17.6932 10.7479 17.9521 11.2234 17.9621C11.6556 17.9709 12.1379 17.7932 12.6701 17.4287C16.3012 14.9765 18.1756 13.7376 18.2934 13.7109C18.3767 13.6921 18.4923 13.6676 18.5701 13.7376C18.6479 13.8065 18.6401 13.9376 18.6323 13.9732C18.5812 14.1876 16.5879 16.0421 15.5545 17.0021C15.2323 17.3009 15.0045 17.5132 14.9579 17.5621C14.8534 17.6698 14.7467 17.7732 14.6445 17.8721C14.0112 18.4809 13.5379 18.9387 14.6712 19.6854C15.2156 20.0443 15.6512 20.3409 16.0856 20.6365C16.5601 20.9598 17.0334 21.2821 17.6467 21.6843C17.8023 21.7865 17.9512 21.8921 18.0967 21.9954C18.649 22.3898 19.1456 22.7432 19.759 22.6876C20.1145 22.6543 20.4834 22.3198 20.6701 21.3209C21.1112 18.9587 21.9801 13.8432 22.1812 11.7343C22.1934 11.5592 22.186 11.3833 22.159 11.2098C22.1428 11.0698 22.0746 10.9409 21.9679 10.8487C21.809 10.7187 21.5623 10.6909 21.4512 10.6932C20.9501 10.7021 20.1812 10.9698 16.4779 12.5098Z" fill="#2CA4D6"/>
</g>
<defs>
<clipPath id="clip0_38_73">
<rect width="26.6667" height="26.6667" fill="white" transform="translate(2.66675 2.6665)"/>
</clipPath>
</defs>
</svg>
