<svg width="32" height="32" viewBox="0 0 32 32" fill="none" xmlns="http://www.w3.org/2000/svg">
<g clip-path="url(#clip0_38_66)">
<circle cx="16" cy="16" r="11" fill="white"/>
<path d="M20.0922 2.6665H11.9064C4.43636 2.6665 2.66553 4.43734 2.66553 11.9073V20.0932C2.66553 27.5632 4.43636 29.334 11.9064 29.334H20.0922C27.5622 29.334 29.333 27.5632 29.333 20.0932V11.9073C29.333 4.43734 27.5447 2.6665 20.0922 2.6665ZM24.1939 21.6898H22.258C21.5247 21.6898 21.2989 21.1082 19.9797 19.7715C18.8339 18.6607 18.3264 18.5132 18.0439 18.5132C17.6447 18.5132 17.5314 18.6257 17.5314 19.1732V20.9223C17.5314 21.3915 17.3839 21.6732 16.1422 21.6732C14.0889 21.6732 11.8105 20.4315 10.213 18.1182C7.80386 14.7282 7.14469 12.189 7.14469 11.664C7.14469 11.3815 7.25719 11.1173 7.79969 11.1173H9.73969C10.2305 11.1173 10.4172 11.3432 10.608 11.8682C11.5672 14.6373 13.1647 17.0632 13.8239 17.0632C14.0672 17.0632 14.1797 16.9507 14.1797 16.3298V13.4698C14.1055 12.1507 13.4114 12.0373 13.4114 11.569C13.4114 11.3432 13.598 11.1173 13.8972 11.1173H16.948C17.3605 11.1173 17.5122 11.3432 17.5122 11.829V15.6873C17.5122 16.104 17.6989 16.2515 17.8114 16.2515C18.0547 16.2515 18.263 16.104 18.7139 15.6523C20.1072 14.0898 21.1055 11.6807 21.1055 11.6807C21.2355 11.3982 21.4614 11.134 21.9522 11.134H23.8922C24.4739 11.134 24.6039 11.4332 24.4739 11.8498C24.2305 12.9782 21.8564 16.329 21.8564 16.329C21.6522 16.6673 21.5739 16.8148 21.8564 17.1923C22.0647 17.4748 22.7422 18.0607 23.193 18.5857C24.0222 19.5273 24.6597 20.3173 24.8297 20.864C25.0205 21.4065 24.7389 21.689 24.1914 21.689L24.1939 21.6898Z" fill="#2787F5"/>
</g>
<defs>
<clipPath id="clip0_38_66">
<rect width="26.6667" height="26.6667" fill="white" transform="translate(2.66675 2.6665)"/>
</clipPath>
</defs>
</svg>
