<svg width="32" height="32" viewBox="0 0 32 32" fill="none" xmlns="http://www.w3.org/2000/svg">
<g clip-path="url(#clip0_38_20)">
<path d="M30.0168 8.66066C29.8486 8.01753 29.5205 7.4312 29.0651 6.96007C28.6097 6.48894 28.043 6.14944 27.4213 5.97539C25.1455 5.33325 15.9858 5.33325 15.9858 5.33325C15.9858 5.33325 6.82578 5.35269 4.54991 5.99482C3.92825 6.16889 3.36151 6.50841 2.90613 6.97956C2.45075 7.45071 2.12262 8.03706 1.95442 8.68021C1.26602 12.8637 0.998981 19.2383 1.97332 23.2544C2.14154 23.8976 2.46968 24.4839 2.92505 24.955C3.38043 25.4262 3.94716 25.7657 4.56882 25.9397C6.84468 26.5818 16.0045 26.5818 16.0045 26.5818C16.0045 26.5818 25.1642 26.5818 27.44 25.9397C28.0617 25.7657 28.6284 25.4262 29.0838 24.9551C29.5392 24.4839 29.8674 23.8976 30.0356 23.2544C30.7617 19.065 30.9854 12.6944 30.0168 8.66078V8.66066Z" fill="#FF0000"/>
<path d="M13.0693 20.5108L20.6681 15.9575L13.0695 11.4043L13.0693 20.5108Z" fill="white"/>
</g>
<defs>
<clipPath id="clip0_38_20">
<rect width="29.3333" height="21.3333" fill="white" transform="translate(1.33325 5.33325)"/>
</clipPath>
</defs>
</svg>
